<svg width="32" height="32" viewBox="0 0 32 32" fill="none" xmlns="http://www.w3.org/2000/svg">
    <rect width="32" height="32" rx="4" fill="#1E1F31" />
    <path
        d="M14.1383 14.344C13.8591 14.344 13.5912 14.455 13.3937 14.6524C13.1963 14.8499 13.0854 15.1177 13.0854 15.3969C13.0854 15.6761 13.1963 15.9439 13.3938 16.1414C13.5912 16.3388 13.859 16.4498 14.1383 16.4498C14.4175 16.4498 14.6853 16.3388 14.8827 16.1414C15.0802 15.9439 15.1911 15.6761 15.1911 15.3969C15.1911 15.1177 15.0802 14.8499 14.8828 14.6524C14.6853 14.455 14.4176 14.344 14.1383 14.344ZM17.8926 14.344C17.6627 14.3245 17.4322 14.3749 17.2314 14.4886C17.0306 14.6022 16.8688 14.7739 16.7671 14.9811C16.6655 15.1882 16.6288 15.4212 16.6618 15.6496C16.6948 15.878 16.796 16.0911 16.9521 16.261C17.1083 16.4309 17.3121 16.5497 17.5368 16.6019C17.7616 16.654 17.9969 16.6371 18.2119 16.5533C18.4269 16.4695 18.6116 16.3228 18.7418 16.1323C18.872 15.9418 18.9417 15.7164 18.9417 15.4857C18.9478 15.3418 18.9255 15.1981 18.8761 15.0629C18.8267 14.9276 18.7511 14.8034 18.6537 14.6974C18.5563 14.5914 18.4389 14.5056 18.3083 14.445C18.1777 14.3843 18.0365 14.35 17.8926 14.344ZM22.8914 5.71429H9.10865C8.83106 5.71495 8.55632 5.77028 8.30012 5.87712C8.04391 5.98396 7.81126 6.14022 7.61545 6.33698C7.41965 6.53374 7.26451 6.76715 7.15891 7.02386C7.05331 7.28058 6.99932 7.55559 7.00001 7.83317V21.7394C6.99933 22.017 7.05333 22.292 7.15894 22.5487C7.26454 22.8054 7.41968 23.0388 7.61548 23.2356C7.81129 23.4323 8.04394 23.5886 8.30013 23.6954C8.55633 23.8023 8.83106 23.8576 9.10865 23.8583H20.7726L20.2274 21.9554L21.544 23.1794L22.7886 24.3314L25 26.2857V7.83317C25.0007 7.55559 24.9467 7.28058 24.8411 7.02386C24.7355 6.76715 24.5804 6.53374 24.3846 6.33698C24.1887 6.14022 23.9561 5.98396 23.6999 5.87712C23.4437 5.77028 23.169 5.71495 22.8914 5.71429ZM18.9211 19.1474C18.9211 19.1474 18.5508 18.7051 18.2422 18.3143C18.9878 18.1387 19.6473 17.7052 20.104 17.0903C19.7339 17.3366 19.3371 17.5402 18.9211 17.6971C18.4426 17.9013 17.9422 18.0498 17.4297 18.1394C16.5488 18.3016 15.6454 18.2981 14.7658 18.1292C14.2493 18.0281 13.7432 17.88 13.2537 17.6869C12.9957 17.5876 12.7448 17.4708 12.5028 17.3372C12.4719 17.3165 12.4412 17.3063 12.4103 17.2857C12.3948 17.278 12.3809 17.2676 12.3691 17.2549C12.1841 17.152 12.0811 17.08 12.0811 17.08C12.5213 17.682 13.158 18.1113 13.8811 18.2937C13.5726 18.6846 13.192 19.1474 13.192 19.1474C12.581 19.1639 11.9754 19.0299 11.4283 18.7573C10.8813 18.4846 10.4097 18.0817 10.0549 17.584C10.0883 15.4988 10.5948 13.4484 11.536 11.5874C12.3644 10.9368 13.3743 10.5595 14.4263 10.5074L14.529 10.6309C13.5393 10.8758 12.6157 11.3358 11.824 11.9783C11.824 11.9783 12.0503 11.8549 12.4308 11.68C13.1702 11.3425 13.9582 11.1238 14.7658 11.032C14.8234 11.0201 14.8819 11.0132 14.9407 11.0114C15.63 10.9216 16.3275 10.9147 17.0184 10.9909C18.1049 11.115 19.1567 11.4504 20.1144 11.9783C19.3628 11.3665 18.4899 10.9212 17.5534 10.672L17.6973 10.5075C18.7493 10.5595 19.7592 10.9369 20.5876 11.5875C21.5289 13.4484 22.0354 15.4988 22.0688 17.584C21.7111 18.0813 21.2374 18.4837 20.6889 18.7561C20.1403 19.0286 19.5335 19.1629 18.9211 19.1474Z"
        fill="#F3F3FF" />
</svg>
    