<svg width="32" height="32" viewBox="0 0 32 32" fill="none" xmlns="http://www.w3.org/2000/svg">
    <rect width="32" height="32" rx="4" fill="#1E1F31" />
    <path
        d="M6.3021 15.4076C8.34816 14.2509 10.6321 13.2855 12.7661 12.3152C16.4374 10.7259 20.1233 9.16412 23.8464 7.71013C24.5708 7.46239 25.8724 7.22018 26 8.32193C25.93 9.88145 25.6427 11.4318 25.4455 12.9822C24.945 16.3917 24.3664 19.7895 23.8024 23.1877C23.608 24.3195 22.2264 24.9056 21.3424 24.1812C19.2179 22.7082 17.077 21.2499 14.9796 19.7428C14.2926 19.0263 14.9297 17.9973 15.5432 17.4857C17.293 15.7158 19.1487 14.2121 20.8071 12.3508C21.2545 11.2422 19.9327 12.1766 19.4968 12.4629C17.1012 14.1572 14.7643 15.9549 12.2387 17.4439C10.9486 18.1728 9.44499 17.5499 8.15548 17.143C6.99929 16.6519 5.30503 16.1568 6.30195 15.4077L6.3021 15.4076Z"
        fill="#F3F3FF" />
</svg>
    