<svg width="32" height="32" viewBox="0 0 32 32" fill="none" xmlns="http://www.w3.org/2000/svg">
    <rect width="32" height="32" rx="4" fill="#1E1F31" />
    <path
        d="M26 8.00897C25.1294 8.61128 24.1656 9.07195 23.1455 9.37324C22.5979 8.75576 21.8703 8.3181 21.0609 8.11947C20.2516 7.92083 19.3995 7.9708 18.6201 8.26261C17.8406 8.55442 17.1713 9.07399 16.7027 9.75105C16.2341 10.4281 15.9888 11.23 16 12.0483V12.9399C14.4024 12.9806 12.8193 12.633 11.3918 11.9283C9.96431 11.2235 8.73665 10.1834 7.81818 8.90065C7.81818 8.90065 4.18182 16.9258 12.3636 20.4925C10.4914 21.739 8.26105 22.364 6 22.2758C14.1818 26.7342 24.1818 22.2758 24.1818 12.0215C24.181 11.7731 24.1566 11.5254 24.1091 11.2814C25.0369 10.3839 25.6917 9.25082 26 8.00897Z"
        fill="#F3F3FF" />
</svg>
    